<svg width="24" height="17" viewBox="0 0 24 17" fill="none" xmlns="http://www.w3.org/2000/svg">
    <style>
        #logo {
            fill: #F2F2F2
        }

        @media not (prefers-color-scheme: dark) {
            #logo {
                fill: #1D1C1C
            }
        }
    </style>
    <path fill-rule="evenodd" clip-rule="evenodd"
        d="M2 0C0.895431 0 0 0.895431 0 2V14.8C0 15.9046 0.89543 16.8 2 16.8H22C23.1046 16.8 24 15.9046 24 14.8V2C24 0.895431 23.1046 0 22 0H2ZM2.88 14.3881V2.4H5.91128L10.69 8.94967V7.72805C10.69 7.72805 10.6894 6.51592 10.6894 6.15057V4.9175V2.4H13.9604L13.9966 2.40001V6.21695L17.7471 2.40001H21.6518L16.5816 7.41L22.08 14.3881H18.1924L14.4674 9.49906L13.9966 9.96432V14.3881H11.1385L10.8949 14.3881L6.15168 7.90829V8.26085V9.06006V9.85927L6.1514 10.2673C6.15123 10.4406 6.15104 10.6289 6.15104 10.8259V14.3881H2.88Z"
        id="logo" />
</svg>