<svg width="24" height="24" viewBox="0 0 24 24" fill="none" xmlns="http://www.w3.org/2000/svg">
    <style>
        #logo {
            fill: #F2F2F2
        }

        #bg {
            fill: #1D1C1C
        }

        @media not (prefers-color-scheme: dark) {
            #logo {
                fill: #1D1C1C
            }

            #bg {
                fill: #F2F2F2
            }
        }
    </style>
    <rect id="bg" width="24" height="24" rx="4" />
    <path id="logo" fill-rule="evenodd" clip-rule="evenodd"
        d="M4 0C1.79086 0 0 1.79086 0 4V20C0 22.2091 1.79086 24 4 24H20C22.2091 24 24 22.2091 24 20V4C24 1.79086 22.2091 0 20 0H4ZM1.71429 4.71429C1.71429 3.05743 3.05743 1.71429 4.71429 1.71429H19.2857C20.9426 1.71429 22.2857 3.05743 22.2857 4.71429V19.2857C22.2857 20.9426 20.9426 22.2857 19.2857 22.2857H4.71429C3.05743 22.2857 1.71429 20.9426 1.71429 19.2857V4.71429ZM4.18285 7.19999V17.4755H6.9866V14.4222C6.9866 14.2533 6.98676 14.092 6.98691 13.9434L6.98715 13.5936V12.9086V12.2236V11.9214L11.0528 17.4755L11.2615 17.4755H13.7114V13.6837L14.1149 13.2849L17.3078 17.4755H20.64L15.9271 11.4943L20.273 7.2H16.9261L13.7114 10.4717V7.2H13.6804V7.19999H10.8766V9.35785V10.4148C10.8766 10.7279 10.8771 11.7669 10.8771 11.7669V12.814L6.78109 7.19999H4.18285Z" />
</svg>